<svg width="234" height="52" viewBox="0 0 234 52" fill="none" xmlns="http://www.w3.org/2000/svg">
<path d="M1.04 40L11.36 12H16L26.24 40H21.76L19.36 33.16H7.92L5.52 40H1.04ZM9.12 29.8H18.16L13.64 17.04L9.12 29.8ZM39.3847 40.48C37.3314 40.48 35.5314 40.12 33.9847 39.4C32.438 38.68 31.2247 37.6533 30.3447 36.32C29.4914 34.9867 29.0514 33.4 29.0247 31.56H33.5047C33.5314 33.0533 34.0514 34.32 35.0647 35.36C36.078 36.4 37.5047 36.92 39.3447 36.92C40.9714 36.92 42.238 36.5333 43.1447 35.76C44.078 34.96 44.5447 33.9467 44.5447 32.72C44.5447 31.7333 44.318 30.9333 43.8647 30.32C43.438 29.7067 42.838 29.2 42.0647 28.8C41.318 28.4 40.4514 28.04 39.4647 27.72C38.478 27.4 37.438 27.0533 36.3447 26.68C34.1847 25.96 32.558 25.0267 31.4647 23.88C30.398 22.7333 29.8647 21.2267 29.8647 19.36C29.838 17.7867 30.198 16.4133 30.9447 15.24C31.718 14.0667 32.7847 13.16 34.1447 12.52C35.5314 11.8533 37.1447 11.52 38.9847 11.52C40.798 11.52 42.3847 11.8533 43.7447 12.52C45.1314 13.1867 46.2114 14.12 46.9847 15.32C47.758 16.4933 48.158 17.8667 48.1847 19.44H43.7047C43.7047 18.72 43.518 18.04 43.1447 17.4C42.7714 16.7333 42.2247 16.1867 41.5047 15.76C40.7847 15.3333 39.9047 15.12 38.8647 15.12C37.5314 15.0933 36.4247 15.4267 35.5447 16.12C34.6914 16.8133 34.2647 17.7733 34.2647 19C34.2647 20.0933 34.5847 20.9333 35.2247 21.52C35.8647 22.1067 36.7447 22.6 37.8647 23C38.9847 23.3733 40.2647 23.8133 41.7047 24.32C43.0914 24.7733 44.3314 25.32 45.4247 25.96C46.518 26.6 47.3847 27.44 48.0247 28.48C48.6914 29.52 49.0247 30.84 49.0247 32.44C49.0247 33.8533 48.6647 35.1733 47.9447 36.4C47.2247 37.6 46.1447 38.5867 44.7047 39.36C43.2647 40.1067 41.4914 40.48 39.3847 40.48ZM59.7125 40V15.44H51.4325V12H72.1925V15.44H63.9525V40H59.7125ZM76.1603 40V12H85.8003C88.0136 12 89.827 12.3733 91.2403 13.12C92.6803 13.8667 93.747 14.88 94.4403 16.16C95.1336 17.4133 95.4803 18.8133 95.4803 20.36C95.4803 22.0933 95.0136 23.6667 94.0803 25.08C93.1736 26.4933 91.747 27.5067 89.8003 28.12L95.7603 40H90.8403L85.4003 28.72H80.4003V40H76.1603ZM80.4003 25.52H85.5603C87.4803 25.52 88.8803 25.0533 89.7603 24.12C90.667 23.1867 91.1203 21.9733 91.1203 20.48C91.1203 18.9867 90.6803 17.8 89.8003 16.92C88.9203 16.0133 87.4936 15.56 85.5203 15.56H80.4003V25.52Z" fill="#404040"/>
<path d="M133.75 40V12H137.99L152.03 33.08V12H156.27V40H152.03L137.99 18.92V40H133.75ZM161.953 40V12H179.753V15.44H166.193V24.16H178.553V27.52H166.193V36.56H179.753V40H161.953ZM184.805 40V12H202.605V15.44H189.045V24.16H201.405V27.52H189.045V36.56H202.605V40H184.805ZM207.656 40V12H216.736C220.016 12 222.709 12.5733 224.816 13.72C226.949 14.8667 228.523 16.4933 229.536 18.6C230.576 20.68 231.096 23.16 231.096 26.04C231.096 28.8933 230.576 31.3733 229.536 33.48C228.523 35.56 226.949 37.1733 224.816 38.32C222.709 39.44 220.016 40 216.736 40H207.656ZM211.896 36.4H216.576C219.109 36.4 221.109 35.9867 222.576 35.16C224.069 34.3333 225.136 33.1467 225.776 31.6C226.443 30.0533 226.776 28.2 226.776 26.04C226.776 23.88 226.443 22.0133 225.776 20.44C225.136 18.8667 224.069 17.6667 222.576 16.84C221.109 15.9867 219.109 15.56 216.576 15.56H211.896V36.4Z" fill="#404040"/>
<path d="M112.185 40.37C120.019 40.37 126.37 34.0192 126.37 26.185C126.37 18.3508 120.019 12 112.185 12C104.351 12 98 18.3508 98 26.185C98 34.0192 104.351 40.37 112.185 40.37Z" fill="#E17FA1"/>
<path d="M112.062 37.1922C117.904 37.1922 122.64 32.4566 122.64 26.6149C122.64 20.7731 117.904 16.0375 112.062 16.0375C106.221 16.0375 101.485 20.7731 101.485 26.6149C101.485 32.4566 106.221 37.1922 112.062 37.1922Z" stroke="white" stroke-miterlimit="10"/>
<path d="M110.757 36.7086C115.488 36.7086 119.323 32.8734 119.323 28.1423C119.323 23.4113 115.488 19.5761 110.757 19.5761C106.026 19.5761 102.191 23.4113 102.191 28.1423C102.191 32.8734 106.026 36.7086 110.757 36.7086Z" stroke="white" stroke-miterlimit="10"/>
<path d="M112.891 35.3116C116.278 35.3116 119.024 32.5658 119.024 29.1786C119.024 25.7914 116.278 23.0456 112.891 23.0456C109.504 23.0456 106.758 25.7914 106.758 29.1786C106.758 32.5658 109.504 35.3116 112.891 35.3116Z" stroke="white" stroke-miterlimit="10"/>
<path d="M117.397 19.0848C118.3 19.0848 119.032 18.3528 119.032 17.4499C119.032 16.5469 118.3 15.8149 117.397 15.8149C116.494 15.8149 115.762 16.5469 115.762 17.4499C115.762 18.3528 116.494 19.0848 117.397 19.0848Z" fill="white"/>
<path d="M108.378 21.188C109.014 21.188 109.529 20.6725 109.529 20.0366C109.529 19.4007 109.014 18.8853 108.378 18.8853C107.742 18.8853 107.226 19.4007 107.226 20.0366C107.226 20.6725 107.742 21.188 108.378 21.188Z" fill="white"/>
<path d="M106.305 31.1052C107.136 31.1052 107.81 30.4316 107.81 29.6008C107.81 28.7699 107.136 28.0963 106.305 28.0963C105.474 28.0963 104.801 28.7699 104.801 29.6008C104.801 30.4316 105.474 31.1052 106.305 31.1052Z" fill="white"/>
<path d="M110.742 27.7278C110.996 27.2768 111.367 26.9028 111.817 26.6455L110.581 26.1927C110.539 26.1787 110.494 26.1763 110.451 26.1857C110.407 26.1952 110.367 26.2161 110.335 26.2464C110.303 26.2789 110.28 26.3202 110.271 26.3651C110.261 26.4101 110.265 26.4568 110.281 26.4997L110.742 27.7278Z" fill="white"/>
<path d="M110.381 29.1172C110.379 28.8579 110.412 28.5996 110.481 28.3496L109.291 28.8946C109.25 28.9139 109.216 28.9443 109.192 28.9824C109.168 29.0204 109.155 29.0645 109.155 29.1095C109.155 29.1545 109.168 29.1986 109.192 29.2366C109.216 29.2747 109.25 29.3051 109.291 29.3244L110.481 29.8694C110.413 29.6246 110.379 29.3714 110.381 29.1172Z" fill="white"/>
<path d="M113.214 26.2848C113.473 26.2817 113.731 26.3153 113.981 26.3846L113.428 25.1871C113.409 25.1465 113.379 25.1122 113.341 25.0881C113.303 25.0641 113.259 25.0513 113.214 25.0513C113.169 25.0513 113.124 25.0641 113.086 25.0881C113.048 25.1122 113.018 25.1465 112.999 25.1871L112.454 26.3769C112.701 26.3109 112.957 26.2799 113.214 26.2848Z" fill="white"/>
<path d="M115.655 27.7278L116.107 26.4997C116.123 26.4576 116.126 26.4121 116.117 26.3683C116.107 26.3245 116.086 26.2842 116.054 26.2521C116.023 26.22 115.983 26.1974 115.94 26.1869C115.896 26.1764 115.851 26.1784 115.808 26.1927L114.572 26.6456C115.024 26.9017 115.398 27.2758 115.655 27.7278Z" fill="white"/>
<path d="M113.214 31.9573C112.954 31.9578 112.696 31.9216 112.446 31.8498L112.991 33.0396C113.01 33.0802 113.041 33.1145 113.079 33.1386C113.117 33.1626 113.161 33.1754 113.206 33.1754C113.251 33.1754 113.295 33.1626 113.333 33.1386C113.371 33.1145 113.402 33.0802 113.421 33.0396L113.966 31.8498C113.716 31.9216 113.458 31.9578 113.198 31.9573H113.214Z" fill="white"/>
<path d="M110.742 30.5142L110.289 31.7423C110.272 31.7839 110.268 31.8296 110.278 31.8735C110.287 31.9173 110.31 31.9572 110.343 31.988C110.365 32.01 110.391 32.0275 110.42 32.0393C110.449 32.0512 110.48 32.0572 110.512 32.057C110.537 32.0643 110.563 32.0643 110.588 32.057L111.824 31.6042C111.371 31.3465 110.996 30.9696 110.742 30.5142Z" fill="white"/>
<path d="M117.136 28.9023L115.946 28.3573C116.015 28.6073 116.049 28.8656 116.046 29.1249C116.05 29.3842 116.016 29.6427 115.946 29.8924L117.136 29.3475C117.177 29.3281 117.211 29.2977 117.235 29.2597C117.259 29.2216 117.272 29.1775 117.272 29.1325C117.272 29.0875 117.259 29.0434 117.235 29.0054C117.211 28.9674 117.177 28.9369 117.136 28.9176V28.9023Z" fill="white"/>
<path d="M115.655 30.5142C115.398 30.9639 115.024 31.3354 114.572 31.5888L115.808 32.0417C115.833 32.0489 115.86 32.0489 115.885 32.0417C115.916 32.0418 115.947 32.0358 115.976 32.024C116.005 32.0121 116.031 31.9947 116.054 31.9726C116.086 31.9418 116.109 31.9019 116.119 31.8581C116.128 31.8143 116.124 31.7686 116.107 31.727L115.655 30.5142Z" fill="white"/>
<path d="M113.214 31.4813C112.746 31.4813 112.289 31.3427 111.9 31.0829C111.511 30.8231 111.208 30.4539 111.029 30.0219C110.85 29.5899 110.804 29.1146 110.895 28.656C110.986 28.1974 111.211 27.7761 111.542 27.4455C111.872 27.1148 112.294 26.8897 112.752 26.7984C113.211 26.7072 113.686 26.754 114.118 26.933C114.55 27.1119 114.919 27.4149 115.179 27.8037C115.439 28.1925 115.578 28.6496 115.578 29.1172C115.578 29.7442 115.329 30.3455 114.885 30.7889C114.442 31.2323 113.841 31.4813 113.214 31.4813Z" fill="white"/>
</svg>
